<svg width="34" height="34" viewBox="0 0 34 34" fill="none" xmlns="http://www.w3.org/2000/svg">
<g clip-path="url(#clip0_147_2)">
<path fill-rule="evenodd" clip-rule="evenodd" d="M32.056 6.94601C32.3344 7.05713 32.5732 7.24914 32.7415 7.49726C32.9097 7.74537 32.9998 8.03822 33 8.33801V25.662C32.9998 25.9618 32.9097 26.2546 32.7415 26.5028C32.5732 26.7509 32.3344 26.9429 32.056 27.054L17.556 32.854C17.1984 32.997 16.7996 32.997 16.442 32.854L1.942 27.054C1.66394 26.9426 1.42561 26.7504 1.25772 26.5023C1.08983 26.2542 1.00007 25.9616 1 25.662L1 8.33801C1.00007 8.03845 1.08983 7.74577 1.25772 7.49768C1.42561 7.24959 1.66394 7.05745 1.942 6.94601L15.886 1.36801L15.906 1.36201L16.442 1.14601C16.8002 1.00248 17.1998 1.00248 17.558 1.14601L18.096 1.36201L18.116 1.36801L32.056 6.94601ZM21.808 5.00001L9.5 9.92201L4.692 8.00001L3 8.67801V9.47801L16 14.678V30.522L17 30.922L18 30.522V14.68L31 9.48001V8.68001L29.308 8.00201L17 12.922L12.192 11L24.5 6.07801L21.808 5.00001Z" fill="white"/>
</g>
<defs>
<clipPath id="clip0_147_2">
<rect width="32" height="32" fill="white" transform="translate(1 1)"/>
</clipPath>
</defs>
</svg>
