<svg width="38" height="38" viewBox="0 0 38 38" fill="none" xmlns="http://www.w3.org/2000/svg">
<path fill-rule="evenodd" clip-rule="evenodd" d="M19 1.58334C9.38129 1.58334 1.58337 9.38125 1.58337 19C1.58337 28.6188 9.38129 36.4167 19 36.4167C28.6188 36.4167 36.4167 28.6188 36.4167 19C36.4167 9.38125 28.6188 1.58334 19 1.58334ZM24.8695 15.3694C25.1579 15.0708 25.3175 14.6708 25.3139 14.2557C25.3102 13.8406 25.1437 13.4434 24.8502 13.1499C24.5566 12.8563 24.1595 12.6898 23.7443 12.6862C23.3292 12.6826 22.9292 12.8422 22.6306 13.1306L19 16.7612L15.3695 13.1306C15.2234 12.9794 15.0487 12.8587 14.8555 12.7758C14.6623 12.6928 14.4546 12.6491 14.2443 12.6473C14.0341 12.6454 13.8256 12.6855 13.631 12.7651C13.4364 12.8447 13.2597 12.9623 13.111 13.111C12.9623 13.2596 12.8448 13.4364 12.7652 13.631C12.6855 13.8256 12.6455 14.0341 12.6473 14.2443C12.6491 14.4545 12.6928 14.6623 12.7758 14.8555C12.8588 15.0486 12.9794 15.2234 13.1306 15.3694L16.7612 19L13.1306 22.6306C12.9794 22.7766 12.8588 22.9514 12.7758 23.1445C12.6928 23.3377 12.6491 23.5455 12.6473 23.7557C12.6455 23.9659 12.6855 24.1744 12.7652 24.369C12.8448 24.5636 12.9623 24.7404 13.111 24.889C13.2597 25.0377 13.4364 25.1553 13.631 25.2349C13.8256 25.3145 14.0341 25.3546 14.2443 25.3527C14.4546 25.3509 14.6623 25.3072 14.8555 25.2242C15.0487 25.1413 15.2234 25.0206 15.3695 24.8694L19 21.2388L22.6306 24.8694C22.9292 25.1578 23.3292 25.3174 23.7443 25.3138C24.1595 25.3102 24.5566 25.1437 24.8502 24.8501C25.1437 24.5566 25.3102 24.1594 25.3139 23.7443C25.3175 23.3292 25.1579 22.9292 24.8695 22.6306L21.2389 19L24.8695 15.3694Z" fill="white"/>
</svg>
