<svg width="41" height="41" viewBox="0 0 41 41" fill="none" xmlns="http://www.w3.org/2000/svg">
<path d="M41 7.6875V23.0625C40.8398 22.7555 40.6663 22.4285 40.4795 22.0815C40.2926 21.7345 40.0858 21.3942 39.8589 21.0605C39.632 20.7269 39.3984 20.3932 39.1582 20.0596C38.918 19.7259 38.6777 19.4456 38.4375 19.2188V12.8125L20.5 21.7812L2.5625 12.8125V30.75H21.7812L23.0625 33.3125H0V7.6875H41ZM38.1372 10.25H2.86279L20.5 19.0786L38.1372 10.25ZM36.1953 31.771C36.9294 32.158 37.59 32.6318 38.1772 33.1924C38.7645 33.7529 39.2716 34.3802 39.6987 35.0742C40.1258 35.7682 40.4461 36.5023 40.6597 37.2764C40.8732 38.0505 40.9867 38.8646 41 39.7188V41H38.4375V39.7188C38.4375 38.8379 38.2707 38.0104 37.937 37.2363C37.6034 36.4622 37.1429 35.7882 36.5557 35.2144C35.9684 34.6405 35.2878 34.18 34.5137 33.833C33.7396 33.486 32.9121 33.3125 32.0312 33.3125C31.1504 33.3125 30.3229 33.4793 29.5488 33.813C28.7747 34.1466 28.0941 34.6071 27.5068 35.1943C26.9196 35.7816 26.4591 36.4622 26.1255 37.2363C25.7918 38.0104 25.625 38.8379 25.625 39.7188V41H23.0625V39.7188C23.0625 38.8779 23.1693 38.0705 23.3828 37.2964C23.5964 36.5223 23.9167 35.7882 24.3438 35.0942C24.7708 34.4002 25.278 33.7729 25.8652 33.2124C26.4525 32.6519 27.1198 32.1714 27.8672 31.771C27.1465 31.1571 26.5926 30.4297 26.2056 29.5889C25.8185 28.748 25.625 27.8538 25.625 26.9062C25.625 26.0254 25.7918 25.1979 26.1255 24.4238C26.4591 23.6497 26.9129 22.9757 27.4868 22.4019C28.0607 21.828 28.7414 21.3675 29.5288 21.0205C30.3162 20.6735 31.1504 20.5 32.0312 20.5C32.9121 20.5 33.7396 20.6668 34.5137 21.0005C35.2878 21.3341 35.9618 21.7946 36.5356 22.3818C37.1095 22.9691 37.57 23.6497 37.917 24.4238C38.264 25.1979 38.4375 26.0254 38.4375 26.9062C38.4375 27.8405 38.244 28.728 37.8569 29.5688C37.4699 30.4097 36.916 31.1437 36.1953 31.771ZM28.1875 26.9062C28.1875 27.4401 28.2876 27.9406 28.4878 28.4077C28.688 28.8748 28.9616 29.2819 29.3086 29.6289C29.6556 29.9759 30.0627 30.2495 30.5298 30.4497C30.9969 30.6499 31.4974 30.75 32.0312 30.75C32.5651 30.75 33.0656 30.6499 33.5327 30.4497C33.9998 30.2495 34.4069 29.9759 34.7539 29.6289C35.1009 29.2819 35.3745 28.8748 35.5747 28.4077C35.7749 27.9406 35.875 27.4401 35.875 26.9062C35.875 26.3724 35.7749 25.8719 35.5747 25.4048C35.3745 24.9377 35.1009 24.5306 34.7539 24.1836C34.4069 23.8366 33.9998 23.563 33.5327 23.3628C33.0656 23.1626 32.5651 23.0625 32.0312 23.0625C31.4974 23.0625 30.9969 23.1626 30.5298 23.3628C30.0627 23.563 29.6556 23.8366 29.3086 24.1836C28.9616 24.5306 28.688 24.9377 28.4878 25.4048C28.2876 25.8719 28.1875 26.3724 28.1875 26.9062Z" fill="white"/>
</svg>
