<svg width="41" height="41" viewBox="0 0 41 41" fill="none" xmlns="http://www.w3.org/2000/svg">
<g clip-path="url(#clip0_384_212)">
<path d="M20.5 23.1906C22.199 23.1906 23.8285 22.5157 25.0299 21.3143C26.2313 20.1129 26.9062 18.4834 26.9062 16.7844C26.9062 15.0853 26.2313 13.4559 25.0299 12.2545C23.8285 11.0531 22.199 10.3781 20.5 10.3781C18.801 10.3781 17.1715 11.0531 15.9701 12.2545C14.7687 13.4559 14.0938 15.0853 14.0938 16.7844C14.0938 18.4834 14.7687 20.1129 15.9701 21.3143C17.1715 22.5157 18.801 23.1906 20.5 23.1906Z" fill="white"/>
<path d="M2.5625 2.5625C1.88288 2.5625 1.2311 2.83248 0.750539 3.31304C0.269977 3.7936 0 4.44538 0 5.125L0 33.3125C0 33.9921 0.269977 34.6439 0.750539 35.1245C1.2311 35.605 1.88288 35.875 2.5625 35.875H3.84375C4.18356 35.875 4.50945 35.74 4.74973 35.4997C4.99001 35.2594 5.125 34.9336 5.125 34.5938C5.125 34.2539 5.25999 33.928 5.50027 33.6878C5.74055 33.4475 6.06644 33.3125 6.40625 33.3125C6.74606 33.3125 7.07195 33.4475 7.31223 33.6878C7.55251 33.928 7.6875 34.2539 7.6875 34.5938C7.6875 34.9336 7.82249 35.2594 8.06277 35.4997C8.30305 35.74 8.62894 35.875 8.96875 35.875H32.0312C32.3711 35.875 32.6969 35.74 32.9372 35.4997C33.1775 35.2594 33.3125 34.9336 33.3125 34.5938C33.3125 34.2539 33.4475 33.928 33.6878 33.6878C33.9281 33.4475 34.2539 33.3125 34.5938 33.3125C34.9336 33.3125 35.2594 33.4475 35.4997 33.6878C35.74 33.928 35.875 34.2539 35.875 34.5938C35.875 34.9336 36.01 35.2594 36.2503 35.4997C36.4906 35.74 36.8164 35.875 37.1562 35.875H38.4375C39.1171 35.875 39.7689 35.605 40.2495 35.1245C40.73 34.6439 41 33.9921 41 33.3125V7.6875C41 7.00788 40.73 6.3561 40.2495 5.87554C39.7689 5.39498 39.1171 5.125 38.4375 5.125H17.1867L15.375 3.31331C14.8946 2.83272 14.2429 2.56265 13.5633 2.5625H2.5625ZM2.5625 5.125H13.5633L15.375 6.93669C15.8554 7.41728 16.5071 7.68736 17.1867 7.6875H38.4375V33.3125H38.2197C38.0105 32.7214 37.6599 32.1905 37.1984 31.766C36.7369 31.3415 36.1786 31.0363 35.5721 30.8771C34.9656 30.7179 34.3294 30.7095 33.7189 30.8526C33.1084 30.9957 32.5422 31.286 32.0697 31.6981C30.4553 28.7589 27.0446 25.625 20.5 25.625C13.9528 25.625 10.5421 28.7615 8.93287 31.6981C8.46033 31.286 7.89413 30.9957 7.28365 30.8526C6.67317 30.7095 6.03695 30.7179 5.43047 30.8771C4.82399 31.0363 4.26566 31.3415 3.80418 31.766C3.3427 32.1905 2.99207 32.7214 2.78287 33.3125H2.5625V5.125Z" fill="white"/>
</g>
<defs>
<clipPath id="clip0_384_212">
<rect width="41" height="41" fill="white"/>
</clipPath>
</defs>
</svg>
